# xmcd
#
# Track frame offsets:
#	150
#	13747
#	24128
#	42220
#	54825
#	66644
#	80347
#	90447
#	108459
#	122196
#	137539
#	152847
#	162489
#
# Disc length: 2317 seconds
#
# Revision: 1
# Processed by: cddbd v1.5.1PL2 Copyright (c) Steve Scherf et al.
# Submitted via: audiograbber 1.83.01
#
DISCID=a0090b0d
DTITLE=Blueswagon - Jumpstart
DYEAR=1900
DGENRE=
TTITLE0=Let's Have a Natural Ball
TTITLE1=I'm Tryin
TTITLE2=You Make Me Feel Good
TTITLE3=I can't Stop It
TTITLE4=What Would I do
TTITLE5=Talkin Woman Blues
TTITLE6=My Baby Pleases Me
TTITLE7=You're Gonna Need Me
TTITLE8=Get On Out Of Here
TTITLE9=I Found Me a New Love
TTITLE10=Jump Start
TTITLE11=Reelin' and Rockin'
TTITLE12=Well Oh Well
EXTD=
EXTT0=
EXTT1=
EXTT2=
EXTT3=
EXTT4=
EXTT5=
EXTT6=
EXTT7=
EXTT8=
EXTT9=
EXTT10=
EXTT11=
EXTT12=
PLAYORDER=
